<?xml version="1.0" standalone="no"?><!DOCTYPE svg PUBLIC "-//W3C//DTD SVG 1.1//EN" "http://www.w3.org/Graphics/SVG/1.1/DTD/svg11.dtd"><svg t="1659078738290" class="icon" viewBox="0 0 1024 1024" version="1.1" xmlns="http://www.w3.org/2000/svg" p-id="4098" xmlns:xlink="http://www.w3.org/1999/xlink" width="200" height="200"><defs><style type="text/css">@font-face { font-family: feedback-iconfont; src: url("//at.alicdn.com/t/font_1031158_u69w8yhxdu.woff2?t=1630033759944") format("woff2"), url("//at.alicdn.com/t/font_1031158_u69w8yhxdu.woff?t=1630033759944") format("woff"), url("//at.alicdn.com/t/font_1031158_u69w8yhxdu.ttf?t=1630033759944") format("truetype"); }
</style></defs><path d="M512 389.8m-273 0a273 273 0 1 0 546 0 273 273 0 1 0-546 0Z" fill="#FFB3E2" p-id="4099"></path><path d="M888.2 816.4c-0.4-0.4-1-0.8-1.4-1.2-35.6-28.8-83.2-71-129.4-122.4-1.2-1.4-2.6-2.8-3.8-4.2" fill="#E1FFFB" p-id="4100"></path><path d="M650.4 863.8h-256c-3.4 0-6-2.6-6-6s2.6-6 6-6h256c3.4 0 6 2.6 6 6s-2.6 6-6 6z" fill="#2C3AC4" p-id="4101"></path><path d="M919 860.6c-2.8-2-36.4-48.2-39.2-50.4-120-94.4-235.4-272-250.8-300-9.2-16.8-26.8-27.2-46-27.2H440.6c-19.2 0-36.8 10.4-45.8 27.2-21.2 38.8-65.6 113.2-128.2 182.8-37.8 42-76.8 78-109 105.4-2 1.8-42.4 58-44.6 59.6" fill="#DCE6FF" p-id="4102"></path><path d="M688.8 606.8c-4.2 0-11-0.8-18-4-22.8-10.4-25.4-36-34-36-14 0-16 66-32 66s-18-36-34-36-24 68-48 68-26-68-38-68-12 24-24 24-10-48-24-48-22 66-40 66-17-41.2-22-66c0 0-0.2-0.2-8-10 10.6-19 23.8-40.6 23.8-40.6s10.4-44.8 50.2-39.4c13.2 1.8 49.8 0.2 84.2 0 19-0.2 32.6 0.4 47.8 1.4C608 486.4 618 496 618 496s52.6 108.4 70.8 110.8z" fill="#FFFFFF" p-id="4103"></path><path d="M358.8 842.8c-1.2 0-2.6-0.4-3.6-1.2-2.6-2-3.2-5.8-1.2-8.4 10.2-13.6 27.8-39.8 43.4-69.2 29-54.2 45.4-110.2 45.6-110.8 1-3.2 4.2-5 7.4-4s5 4.2 4 7.4c-0.2 0.6-17 57.8-46.4 113.2-16 30-34 57-44.6 70.8-1 1.4-2.8 2.2-4.6 2.2zM716.8 812.8c-1.6 0-3.2-0.6-4.4-2-1-1-24.8-27.2-45-69.4-20-42-30-79.4-30.4-81-0.8-3.2 1-6.4 4.2-7.4 3.2-0.8 6.4 1 7.4 4.2 0 0.4 10.2 38 29.6 79 19.4 40.6 42.8 66.2 43 66.6 2.2 2.4 2 6.2-0.4 8.4-1 1-2.6 1.6-4 1.6zM609.2 863.8c-2.2 0-4.2-1.2-5.2-3.2-0.8-1.6-21-38.4-31-88.8-10-49.8-12-86.4-12.2-86.8-0.2-3.4 2.4-6.2 5.6-6.4 3.2-0.2 6.2 2.4 6.4 5.6 0 0.4 2.2 36.2 11.8 85.2 9.6 48.4 29.6 85 29.8 85.2 1.6 3 0.6 6.6-2.4 8.2-0.8 0.8-1.8 1-2.8 1zM278.8 776.8c-1.6 0-3.2-0.6-4.4-1.8-2.2-2.4-2.2-6.2 0.2-8.4 0.2-0.2 23.2-22.4 35.4-37.4 23-28.8 33-54.2 33-54.4 1.2-3 4.6-4.6 7.8-3.4 3 1.2 4.6 4.6 3.4 7.8-0.4 1-10.6 27.2-35 57.6-12.8 15.8-35.6 37.6-36.6 38.6-0.8 0.8-2.4 1.4-3.8 1.4z" fill="#2C3AC4" p-id="4104"></path><path d="M314.8 444.8h74.8c21.2 0 39.6-15.2 42.6-36.2 2.8-20-8.6-38-25.6-45.2-2.6-1-4.6-3-5.4-5.6-3.2-8.8-11.8-15-21.8-15-1.2 0-2.2 0.2-3.4 0.2-6.2-18-23.2-30.8-43.4-30.8-15.2 0-28.6 7.4-36.8 18.6-2.2 3-6.6 3.6-9.6 1.2-4.4-3.4-9.8-5.4-15.8-5.4-0.8 0-1.8 0-2.6 0.2-1.8 0.2-3.4-0.8-4.2-2.4-5.6-13-19.2-21.6-34.6-19.6-14.6 1.8-26.4 13.4-28.4 28-0.8 6.4 0 12.4 2.2 17.6 2 4.6-1.2 9.6-6.2 9.6h-0.8c-21.6 0-40.4 15.8-43 37.2-1.2 10.6 1.4 20.6 6.8 28.6M868 638.4h-26.2c-7.6 0-13.2-6.4-12.8-14 0-1.8 0-3.6-0.2-5.4-1.6-11-10.6-20-21.8-21.8-7.4-1-14.2 0.8-19.4 4.8-8-7-18.2-11-29.6-11-24.8 0-45 20.2-45 45v2.6c-13.8 1.2-24.6 14.4-21.6 29 2.2 11.4 12.8 19.4 24.4 19.4h152.8c14.8 0 26.4-13.2 24-28.4-2-12-12.8-20.2-24.6-20.2z" fill="#B3BEFF" p-id="4105"></path><path d="M834.4 196.8c-1.8-0.6-3-2.2-3.4-4-2.4-12.4-13.2-21.8-26.4-21.8-5 0-9.6 1.4-13.4 3.6-2.6 1.4-5.8 0.8-7.4-1.6-8.4-12.6-24.6-19.8-41.8-14.6-15.2 4.6-25.2 19-25.2 35 0 1.2-0.8 2.2-2 2.4-10.4 2-18 12.2-15.6 23.6 2 9.2 10.4 15.4 19.8 15.4h107.4c10 0 18.8-7 20.2-16.8 1.6-9.4-4-18-12.2-21.2z" fill="#E1FFFB" p-id="4106"></path><path d="M288.8 428.8c-0.6 0-0.8-0.6-0.6-1 2.2-5.6 3.2-11.8 2.2-18.2-2.2-15-14.8-27-29.8-28.6-12.8-1.4-24.2 4.4-31.2 13.8-1.6 2.4-4.8 3.2-7.4 1.8-4.8-2.4-10.4-3.8-16.2-3.8-18.2 0-33.2 13-36.4 30.2-0.6 3.2-3.4 5.8-6.8 5.8h-19.8c-13.2 0-24 10.8-24 24s10.8 24 24 24h146c13.2 0 24-10.8 24-24s-10.8-24-24-24z" fill="#B3BEFF" p-id="4107"></path><path d="M137.6 798.2c15 0 27.2 52.6 41.2 52.6s24.4-48 42-48 18 32 36 32 16.4-22 34-22 25.8 40 42 40c12 0 15.2-16 30-16 15 0 34 36 34 36h-300s25.8-74.6 40.8-74.6zM670.8 838.8c14 0 14.6 14 34 14s26-46 42-46 26 32 42 32 22-42 38-42 30 50 42 50 18-40 32-40 36 66 36 66H650.4s6.4-34 20.4-34z" fill="#5ACCC3" p-id="4108"></path><path d="M888.2 822.4c-1.6 0-3-0.6-4.2-1.8l-0.2-0.2c-0.4-0.2-0.6-0.6-1-0.8-32.6-26.4-81.4-69-130-123-0.6-0.8-1.2-1.4-1.8-2-0.8-0.8-1.4-1.6-2-2.2-2.2-2.6-1.8-6.4 0.6-8.4 2.6-2.2 6.4-1.8 8.4 0.6 0.6 0.6 1.2 1.2 1.8 2 0.8 0.8 1.4 1.6 2 2.2 47.8 53.2 96.4 95.6 128.6 121.6 0.2 0.2 0.4 0.2 0.4 0.4l0.2 0.2c0.4 0.4 0.8 0.8 1.2 1 2.4 2.4 2.4 6.2 0 8.4-1 1.4-2.4 2-4 2zM650.4 863.8h-256c-3.4 0-6-2.6-6-6s2.6-6 6-6h256c3.4 0 6 2.6 6 6s-2.6 6-6 6zM151.6 809.6c-1.8 0-3.4-0.8-4.6-2.2-2.2-2.6-1.8-6.4 0.8-8.4 41.8-35 80.4-72 114.6-110 62.4-69.4 106.6-143.6 127.4-181.6 10-18.6 29.6-30.4 51-30.4h142.4c21.4 0 41 11.6 51.2 30.4 16.6 30.6 44.4 77.2 82.2 126.8 2 2.6 1.4 6.4-1.2 8.4-2.6 2-6.4 1.4-8.4-1.2-38.2-50.2-66.2-97.6-83-128.4-8.2-14.8-23.8-24-40.8-24h-142.4c-17 0-32.6 9.2-40.6 24-21 38.6-65.8 113.8-129 184-34.6 38.4-73.6 75.8-115.8 111.2-1 1-2.4 1.4-3.8 1.4z" fill="#2C3AC4" p-id="4109"></path><path d="M522.8 670.8c-18.6 0-25.8-26-31.8-47-2-7.2-5-17.6-7.2-20.8-1.8 0.8-3.6 4.2-5.8 8.4-3.2 6.4-7.6 15.4-17.4 15.4-10.6 0-13.6-13.2-16.8-27.2-1.4-6.2-4.2-18.8-7-20.6-3.4 2.4-8.6 17-11.8 25.8-7.4 20.6-14.4 40-28.2 40-18.8 0-22-25.6-25-50.6-0.8-7.4-1.8-14.4-3-20.2-0.8-3.6-4.6-5.8-4.8-5.8-3-1.4-4.2-5-2.8-8 1.4-3 5-4.2 8-2.8 1 0.4 9.4 4.8 11.2 14.2 1.2 6.4 2.2 14 3 21.2 2 16.8 4.8 40 13 40 5.4 0 13-21 17-32.2 6.8-19 12.2-33.8 23-33.8 12 0 15.6 15.2 19 30 1.4 5.8 3.6 15.4 5.6 17.8 2-0.6 3.8-4 6.2-8.6 3.2-6.4 7.6-15.4 17.4-15.4 9.6 0 13 12.4 17.8 29.8 4.2 15.2 10.6 38.2 20.2 38.2 9.2 0 17.4-20.4 23.6-35.4 7.4-18.2 13.2-32.6 24.4-32.6 11.8 0 17.4 11.4 22.4 21.4 3.6 7.2 7.4 14.6 11.6 14.6 4-1.4 9-20.8 11.4-30.2 5.2-20 9.2-35.8 20.6-35.8 11.8 0 19 11 25.8 21.6 3.8 5.8 7.6 12 12.2 16 5.2 4.6 12.4 2.8 12.4 2.6 3.2-0.8 6.4 1 7.4 4.2 0.8 3.2-1 6.4-4.2 7.4-0.6 0.2-13.4 3.6-23.6-5.2-5.8-5.2-10.2-11.8-14.4-18.4-5.2-8-10.2-15.6-15.4-16-3.2 2.6-7 17.6-9.4 26.8-5.2 20.2-10 39.2-23 39.2-11.8 0-17.4-11.4-22.4-21.4-3.6-7.2-7.4-14.6-11.6-14.6-3.4 0.8-9.6 16-13.4 25.2-7.8 20-17 42.8-34.2 42.8z" fill="#2C3AC4" p-id="4110"></path><path d="M358.8 842.8c-1.2 0-2.6-0.4-3.6-1.2-2.6-2-3.2-5.8-1.2-8.4 10.2-13.6 27.8-39.8 43.4-69.2 29-54.2 45.4-110.2 45.6-110.8 1-3.2 4.2-5 7.4-4s5 4.2 4 7.4c-0.2 0.6-17 57.8-46.4 113.2-16 30-34 57-44.6 70.8-1 1.4-2.8 2.2-4.6 2.2zM716.8 812.8c-1.6 0-3.2-0.6-4.4-2-1-1-24.8-27.2-45-69.4-20-42-30-79.4-30.4-81-0.8-3.2 1-6.4 4.2-7.4 3.2-0.8 6.4 1 7.4 4.2 0 0.4 10.2 38 29.6 79 19.4 40.6 42.8 66.2 43 66.6 2.2 2.4 2 6.2-0.4 8.4-1 1-2.6 1.6-4 1.6zM609.2 863.8c-2.2 0-4.2-1.2-5.2-3.2-0.8-1.6-21-38.4-31-88.8-10-49.8-12-86.4-12.2-86.8-0.2-3.4 2.4-6.2 5.6-6.4 3.2-0.2 6.2 2.4 6.4 5.6 0 0.4 2.2 36.2 11.8 85.2 9.6 48.4 29.6 85 29.8 85.2 1.6 3 0.6 6.6-2.4 8.2-0.8 0.8-1.8 1-2.8 1zM278.8 776.8c-1.6 0-3.2-0.6-4.4-1.8-2.2-2.4-2.2-6.2 0.2-8.4 0.2-0.2 23.2-22.4 35.4-37.4 23-28.8 33-54.2 33-54.4 1.2-3 4.6-4.6 7.8-3.4 3 1.2 4.6 4.6 3.4 7.8-0.4 1-10.6 27.2-35 57.6-12.8 15.8-35.6 37.6-36.6 38.6-0.8 0.8-2.4 1.4-3.8 1.4z" fill="#2C3AC4" p-id="4111"></path><path d="M314.8 444.8h74.8c21.2 0 39.6-15.2 42.6-36.2 2.8-20-8.6-38-25.6-45.2-2.6-1-4.6-3-5.4-5.6-3.2-8.8-11.8-15-21.8-15-1.2 0-2.2 0.2-3.4 0.2-6.2-18-23.2-30.8-43.4-30.8-15.2 0-28.6 7.4-36.8 18.6-2.2 3-6.6 3.6-9.6 1.2-4.4-3.4-9.8-5.4-15.8-5.4-0.8 0-1.8 0-2.6 0.2-1.8 0.2-3.4-0.8-4.2-2.4-5.6-13-19.2-21.6-34.6-19.6-14.6 1.8-26.4 13.4-28.4 28-0.8 6.4 0 12.4 2.2 17.6 2 4.6-1.2 9.6-6.2 9.6h-0.8c-21.6 0-40.4 15.8-43 37.2-1.2 10.6 1.4 20.6 6.8 28.6" fill="#7988E2" p-id="4112"></path><path d="M868.6 693h-152.8c-14.8 0-27.6-10.2-30.2-24.2-1.8-8.4 0.2-17 5.4-24 4-5.4 9.8-9.4 16.2-11.2 1.2-27 23.6-48.6 51-48.6 11 0 21.4 3.4 30 9.6 5.8-3.2 12.8-4.4 19.8-3.4 14 2.2 25 13.2 27 26.8v0.2c0.2 2.2 0.2 4.2 0.2 6v0.4c-0.2 2.2 0.6 4.2 2 5.6 0.8 1 2.4 2 4.8 2h26c15.2 0 28 10.6 30.6 25.2 1.4 9-1 18-6.8 24.8-6 7-14.4 10.8-23.2 10.8z m-110.6-96c-21.6 0-39 17.4-39 39v2.6c0 3.2-2.4 5.8-5.4 6-5.2 0.4-9.8 3.2-13 7.4-3.2 4.2-4.2 9.4-3.2 14.4 1.6 8.4 9.6 14.6 18.6 14.6h152.8c5.4 0 10.4-2.4 14-6.4 3.6-4.2 5-9.6 4.2-15-1.4-8.6-9.4-15.2-18.6-15.2h-26.2c-5.2 0-10-2-13.6-5.8-3.6-3.8-5.6-9-5.2-14.4 0-1.6 0-3-0.2-4.4-1.2-8.4-8.2-15.2-16.8-16.6-5.4-0.8-10.8 0.6-14.8 3.6-2.2 1.8-5.4 1.6-7.6-0.2-7.4-6.4-16.4-9.6-26-9.6zM826.4 240.8h-107.4c-12.6 0-23-8.2-25.6-20.2-1.4-7-0.2-13.8 3.8-19.6 3.2-5 8.2-8.6 13.8-10.4 1-17.8 12.6-32.8 29.4-38 18.4-5.6 37.6 1.2 48.2 16.6 4.8-2.8 10.4-4.2 16.2-4.2 15.6 0 29 11 32.2 26.4 11 4.4 17.6 16 15.6 27.8-1.8 12.2-13 21.6-26.2 21.6z m-73.2-78c-3 0-6.2 0.4-9.6 1.4-12.6 3.8-21 15.6-21 29.2 0 4.2-3 7.6-7 8.4-3.4 0.6-6.8 2.8-8.8 6-2 3-2.8 6.8-2 10.6 1.4 6.2 7 10.6 14 10.6h107.4c7.2 0 13.4-5 14.2-11.6 1.2-7-3.2-12.6-8.4-14.8-3.6-1.2-6.2-4.4-7.2-8.4-2-10-10.6-17.2-20.6-17.2-3.6 0-7.2 1-10.4 2.8-5.6 3-12.2 1.4-15.4-3.4-4.6-7.6-13.8-13.6-25.2-13.6zM713.6 190z" fill="#2C3AC4" p-id="4113"></path><path d="M288.8 428.8c-0.6 0-0.8-0.6-0.6-1 2.2-5.6 3.2-11.8 2.2-18.2-2.2-15-14.8-27-29.8-28.6-12.8-1.4-24.2 4.4-31.2 13.8-1.6 2.4-4.8 3.2-7.4 1.8-4.8-2.4-10.4-3.8-16.2-3.8-18.2 0-33.2 13-36.4 30.2-0.6 3.2-3.4 5.8-6.8 5.8h-19.8c-13.2 0-24 10.8-24 24s10.8 24 24 24h146c13.2 0 24-10.8 24-24s-10.8-24-24-24z" fill="#B3BEFF" p-id="4114"></path><path d="M288.8 482.8h-146c-16.6 0-30-13.4-30-30s13.4-30 30-30h19.8c0.4 0 0.8-0.4 1-1 3.8-20.4 21.6-35 42.2-35 6.6 0 13 1.6 18.8 4.4 8.8-11.6 22.4-17.8 36.6-16.2 17.8 1.8 32.4 16 35 33.6 0.8 5 0.6 9.8-0.6 14.8 13.2 3.2 23 15 23 29.2 0.2 16.8-13.2 30.2-29.8 30.2z m-146-48c-10 0-18 8-18 18s8 18 18 18h146c10 0 18-8 18-18s-8-18-18-18c-2.4 0-4.4-1.2-5.6-3.2-1.2-1.8-1.4-4.2-0.4-6.2 2-5 2.6-10 1.8-15-1.8-12.4-12.2-22.2-24.6-23.6-10-1-19.6 3.2-25.6 11.4-3.4 4.8-9.8 6.4-15.2 3.6-4-2-8.6-3-13.4-3-15 0-27.8 10.6-30.6 25.2-1.2 6.2-6.6 10.8-12.6 10.8h-19.8zM396.8 878.8h-300c-2 0-3.8-1-4.8-2.6s-1.4-3.6-0.8-5.4c0.2-0.8 6.6-19.2 15-37.8 16-36 25-40.8 31.6-40.8 11.4 0 18.8 14.8 26.6 30.2 3.8 7.6 11 21.8 14.6 22.4 3 0 9.8-12.8 13.2-18.8 7.8-14.4 15.8-29.2 28.8-29.2 12.2 0 18.2 10.4 23 18.8 4.6 8.2 7.8 13.2 13 13.2 5.8 0 8.2-3 12.4-8.6 4.2-5.6 9.8-13.4 21.6-13.4 12.4 0 20.2 12.4 27 23.4 4.8 7.8 10.4 16.6 15 16.6 3.2 0 5.4-2 9.2-5.6 4.8-4.6 10.6-10.4 20.8-10.4 17.8 0 35.8 32.6 39.4 39.2 1 1.8 1 4-0.2 5.8-1.4 1.8-3.2 3-5.4 3z m-291.4-12h281c-8-12.8-17.8-24-23.6-24-5 0-8 2.6-12.6 7-4.2 4-9.4 9-17.4 9-11.2 0-18.4-11.2-25.2-22.2-5.2-8.4-11.2-17.8-16.8-17.8-5.4 0-7.8 3-12 8.4-4.2 5.8-10 13.6-22 13.6-12.6 0-18.6-10.6-23.4-19.2-4.6-8-7.6-12.8-12.6-12.8-5.8 0-13 13.2-18.2 23-7.4 13.4-13.6 25-23.8 25-10.6 0-17.4-13.4-25.2-29-3.8-7.6-11.8-23.4-15.8-23.6-6 1.8-20.6 30.2-32.4 62.6z" fill="#2C3AC4" p-id="4115"></path><path d="M936.8 878.8H650.4c-1.8 0-3.4-0.8-4.6-2.2-1.2-1.4-1.6-3.2-1.2-5 1.2-6.4 8.2-38.8 26.2-38.8 8.6 0 13.4 4 17.8 7.6 4.2 3.4 8 6.4 16.2 6.4 6.6 0 12.6-11.4 17.8-21.4 6.4-12 13-24.6 24.2-24.6 10.8 0 18.4 9.2 25.6 18.2 5.6 6.8 11.2 13.8 16.4 13.8 4.4 0 9.8-10.2 13.6-17.8 6.2-12 12.6-24.2 24.4-24.2 12 0 20.8 15.6 29.2 30.8 3.6 6.6 9.8 17.6 12.8 19.2 2.4-1 6.8-10.4 9.2-15.4 5.8-12 11.6-24.6 22.8-24.6 6.2 0 14.6 4.4 28.8 36.6 7.2 16.6 12.8 32.8 13 33.6 0.6 1.8 0.4 3.8-0.8 5.4-1.2 1.4-3 2.4-5 2.4z m-278.8-12h270.4c-10-27.8-22.4-52.2-27.8-54-3.4 0.4-8.8 11.6-11.8 17.8-5.4 11.4-10.6 22.2-20.2 22.2-9 0-15.4-11.2-23.2-25.4-5.2-9.2-13.8-24.6-18.8-24.6-4.4 0-9.8 10.2-13.6 17.8-6.2 12-12.6 24.2-24.4 24.2-10.8 0-18.4-9.2-25.6-18.2-5.6-6.8-11.2-13.8-16.4-13.8-4 0-9.6 10.4-13.6 18.2-6.8 13-14.6 27.8-28.4 27.8-12.6 0-18.8-5.2-23.8-9.2-4-3.2-6-4.8-10.2-4.8-4 0-9.4 10.6-12.6 22z m211.2-26z m31.4-28z" fill="#2C3AC4" p-id="4116"></path></svg>